# xmcd CD database file
#
# Track frame offsets:
#	150
#	10634
#	19921
#	36676
#	56088
#	67045
#	81600
#	94188
#	113220
#	123756
#	137276
#	149725
#	169524
#	181665
#	212064
#	247246
#
# Disc length: 4043 seconds
#
# Revision: 0
# Processed by: cddbd v1.4PL0 Copyright (c) Steve Scherf et al.
# Submitted via: CDex 1.50beta10
#
DISCID=e90fc910
DTITLE=Don Rendell - Ian Carr Quintet - Live from the Antibes Jazz Festival
DYEAR=1964
DGENRE=Jazz
TTITLE0=Blues By Five
TTITLE1=Peace Talk
TTITLE2=Blues For Crazy Jane
TTITLE3=You'll Never Know
TTITLE4=Waltz For Swingers
TTITLE5=West Coast Blues
TTITLE6=I've Never Been In Love Before
TTITLE7=I Can't Get Started
TTITLE8=There Is No Greater Love
TTITLE9=Blues For Sally
TTITLE10=Downbeat After Dark
TTITLE11=You're Not There
TTITLE12=Just Friends
TTITLE13=Pavane
TTITLE14=Hot Rod
TTITLE15=Voices
EXTD=YEAR: 1964
EXTT0=
EXTT1=
EXTT2=
EXTT3=
EXTT4=
EXTT5=
EXTT6=
EXTT7=
EXTT8=
EXTT9=
EXTT10=
EXTT11=
EXTT12=
EXTT13=
EXTT14=
EXTT15=
PLAYORDER=
